<svg width="79" height="79" viewBox="0 0 79 79" fill="none" xmlns="http://www.w3.org/2000/svg">
<rect x="2" y="2" width="75" height="75" rx="37.5" fill="white" stroke="#FFD751" stroke-width="4"/>
<g clip-path="url(#clip0_286_25112)">
<path d="M33.4773 55L34.3181 54.1535C34.2208 52.226 33.9978 50.2985 33.8033 48.3768C36.7089 45.9288 39.643 43.4923 42.3827 40.8441L53.9476 54.5253L55 53.4729C53.9018 51.0878 52.7122 48.7542 51.5397 46.4035L52.369 45.5799C52.5086 45.4403 52.587 45.2511 52.587 45.0537C52.587 44.8563 52.5086 44.667 52.369 44.5275C52.2294 44.3879 52.0402 44.3095 51.8428 44.3095C51.6454 44.3095 51.4562 44.3879 51.3166 44.5275L50.8419 45.0022L49.4234 42.2111L50.2642 41.3703C50.3333 41.3012 50.3881 41.2192 50.4255 41.1289C50.4629 41.0386 50.4822 40.9418 50.4822 40.8441C50.4822 40.7464 50.4629 40.6496 50.4255 40.5593C50.3881 40.469 50.3333 40.387 50.2642 40.3179C50.1951 40.2488 50.1131 40.194 50.0228 40.1566C49.9325 40.1192 49.8357 40.0999 49.738 40.0999C49.6403 40.0999 49.5435 40.1192 49.4532 40.1566C49.3629 40.194 49.2809 40.2488 49.2118 40.3179L48.7142 40.8155C48.188 39.7459 47.6161 38.6993 47.0899 37.6297C46.5637 36.5601 46.9411 37.1378 46.5808 36.6288C48.6799 34.4611 50.8018 32.2934 52.7122 29.9426C53.2841 29.1819 54.1764 28.2268 54.428 27.2315C54.5255 26.855 54.5312 26.4606 54.4446 26.0814C54.358 25.7022 54.1817 25.3493 53.9304 25.0524C53.6339 24.8068 53.2832 24.6352 52.9073 24.5516C52.5315 24.4681 52.1411 24.4751 51.7685 24.572C50.1269 24.8694 43.4236 31.3839 42.3712 32.4363L38.2131 30.2915L38.6878 29.8168C38.8274 29.6765 38.9055 29.4865 38.9049 29.2886C38.9044 29.0907 38.8253 28.9011 38.685 28.7615C38.5446 28.622 38.3546 28.5439 38.1567 28.5444C37.9588 28.5449 37.7693 28.6241 37.6297 28.7644L36.8175 29.548L34.0321 28.1238L34.4725 27.6834C34.6121 27.5438 34.6905 27.3546 34.6905 27.1572C34.6905 26.9598 34.6121 26.7706 34.4725 26.631C34.333 26.4914 34.1437 26.413 33.9463 26.413C33.7489 26.413 33.5597 26.4914 33.4201 26.631L32.6423 27.4317C30.2801 26.1963 27.9408 25.0238 25.5271 24L24.4747 25.0524C28.69 28.5756 28.8673 28.7644 33.1113 32.2648C34.8271 33.6832 36.583 35.0502 38.1616 36.6288C35.5878 39.3913 33.1284 42.2625 30.7262 45.2081C28.7701 45.0766 26.7969 44.6362 24.8293 44.6991L23.9828 45.5399C25.3441 46.5694 26.9398 47.2557 28.3183 48.2681C29.0056 48.8333 29.6481 49.451 30.24 50.1155L33.4773 55Z" fill="#009DEA"/>
</g>
<defs>
<clipPath id="clip0_286_25112">
<rect width="31" height="31" fill="white" transform="matrix(-1 0 0 1 55 24)"/>
</clipPath>
</defs>
</svg>
