<svg width="75" height="75" viewBox="0 0 75 75" fill="none" xmlns="http://www.w3.org/2000/svg">
<rect width="75" height="75" rx="37.5" fill="white"/>
<path d="M54.1457 34.0516H45.9426V54.5781H54.1457V34.0516Z" fill="#F9D16E"/>
<path d="M45.9426 26.7137H30.4633V54.5781H45.9426V26.7137Z" fill="#FFAD5A"/>
<path d="M38.2031 45.7891H33.5301V54.5781H38.2031V45.7891Z" fill="#FFF8E3"/>
<path d="M42.8762 45.7891H38.2031V54.5781H42.8762V45.7891Z" fill="#FFF8E3"/>
<path d="M51.2883 43.0707H48.8V45.559H51.2883V43.0707Z" fill="#FFF8E3"/>
<path d="M51.2883 37.2465H48.8V39.7348H51.2883V37.2465Z" fill="#FFF8E3"/>
<path d="M51.2883 48.8949H48.8V51.3832H51.2883V48.8949Z" fill="#FFF8E3"/>
<path d="M45.9426 31.2004H54.9895C55.0068 31.2004 55.0233 31.2073 55.0356 31.2195C55.0478 31.2317 55.0547 31.2483 55.0547 31.2656V34.052H45.9426V31.2004Z" fill="#F7963E"/>
<path d="M22.2602 54.5781H30.4633L30.4633 34.0516H22.2602V54.5781Z" fill="#F9D16E"/>
<path d="M25.1176 45.559H27.6059V43.0707H25.1176V45.559Z" fill="#FFF8E3"/>
<path d="M25.1176 39.7348H27.6059V37.2465H25.1176V39.7348Z" fill="#FFF8E3"/>
<path d="M25.1176 51.3832H27.6059V48.8949H25.1176V51.3832Z" fill="#FFF8E3"/>
<path d="M30.4633 34.0516H21.3516V31.2652C21.3516 31.2479 21.3584 31.2313 21.3707 31.2191C21.3829 31.2069 21.3995 31.2 21.4168 31.2H30.4633V34.0516Z" fill="#F7963E"/>
<path d="M36.3332 34.8883H33.8449V37.3766H36.3332V34.8883Z" fill="#FFF8E3"/>
<path d="M42.5613 34.8883H40.073V37.3766H42.5613V34.8883Z" fill="#FFF8E3"/>
<path d="M36.3332 29.884H33.8449V32.3723H36.3332V29.884Z" fill="#FFF8E3"/>
<path d="M42.5613 29.884H40.073V32.3723H42.5613V29.884Z" fill="#FFF8E3"/>
<path d="M36.3332 39.8926H33.8449V42.3809H36.3332V39.8926Z" fill="#FFF8E3"/>
<path d="M42.5613 39.8926H40.073V42.3809H42.5613V39.8926Z" fill="#FFF8E3"/>
<path d="M45.7941 19.4219H30.6121C30.0005 19.4219 29.5047 19.9177 29.5047 20.5293V23.5879C29.5047 24.1995 30.0005 24.6953 30.6121 24.6953H45.7941C46.4058 24.6953 46.9016 24.1995 46.9016 23.5879V20.5293C46.9016 19.9177 46.4058 19.4219 45.7941 19.4219Z" fill="#4F9DA6"/>
<path d="M33.5344 20.7148V23.4023H32.8656V22.3305H31.766V23.4023H31.0973V20.7148H31.766V21.7305H32.8656V20.7148H33.5344Z" fill="#FFF8E3"/>
<path d="M34.2109 22.0566C34.2004 21.7688 34.2762 21.4843 34.4285 21.2398C34.5808 20.9953 34.8026 20.8019 35.0656 20.6843C35.3286 20.5668 35.6208 20.5306 35.9045 20.5802C36.1882 20.6299 36.4507 20.7632 36.6581 20.9631C36.8656 21.163 37.0085 21.4203 37.0687 21.702C37.1289 21.9837 37.1035 22.2769 36.9958 22.5441C36.8882 22.8113 36.7031 23.0402 36.4644 23.2015C36.2257 23.3628 35.9443 23.449 35.6563 23.4492C35.2811 23.4522 34.9197 23.3081 34.6495 23.0478C34.3793 22.7875 34.2219 22.4317 34.2109 22.0566ZM36.4133 22.0566C36.408 21.9077 36.359 21.7636 36.2724 21.6423C36.1858 21.521 36.0654 21.4279 35.9262 21.3745C35.7871 21.3212 35.6353 21.31 35.4898 21.3423C35.3443 21.3746 35.2115 21.449 35.108 21.5562C35.0045 21.6635 34.9348 21.7988 34.9077 21.9453C34.8806 22.0919 34.8972 22.2432 34.9554 22.3803C35.0136 22.5175 35.111 22.6346 35.2352 22.7168C35.3595 22.7991 35.5053 22.843 35.6543 22.843C35.8582 22.8367 36.0515 22.7509 36.1929 22.6039C36.3344 22.457 36.4128 22.2606 36.4113 22.0566H36.4133Z" fill="#FFF8E3"/>
<path d="M38.4398 21.3133H37.6227V20.7148H39.9227V21.3133H39.109V23.4023H38.4398V21.3133Z" fill="#FFF8E3"/>
<path d="M41.223 21.3133V21.732H42.5379V22.3305H41.223V22.8039H42.6707V23.4023H40.5543V20.7148H42.6707V21.3133H41.223Z" fill="#FFF8E3"/>
<path d="M45.309 22.8039V23.4023H43.3488V20.7148H44.0129V22.8039H45.309Z" fill="#FFF8E3"/>
<path d="M33.532 27.2996C33.3766 27.2996 33.2276 27.2379 33.1177 27.128C33.0078 27.0181 32.9461 26.8691 32.9461 26.7137V24.6953C32.9461 24.5399 33.0078 24.3909 33.1177 24.281C33.2276 24.1711 33.3766 24.1094 33.532 24.1094C33.6874 24.1094 33.8365 24.1711 33.9464 24.281C34.0562 24.3909 34.118 24.5399 34.118 24.6953V26.7137C34.118 26.8691 34.0562 27.0181 33.9464 27.128C33.8365 27.2379 33.6874 27.2996 33.532 27.2996Z" fill="#4F9DA6"/>
<path d="M42.8738 27.2996C42.7184 27.2996 42.5694 27.2379 42.4595 27.128C42.3496 27.0181 42.2879 26.8691 42.2879 26.7137V24.6953C42.2879 24.5399 42.3496 24.3909 42.4595 24.281C42.5694 24.1711 42.7184 24.1094 42.8738 24.1094C43.0292 24.1094 43.1783 24.1711 43.2881 24.281C43.398 24.3909 43.4598 24.5399 43.4598 24.6953V26.7137C43.4598 26.8691 43.398 27.0181 43.2881 27.128C43.1783 27.2379 43.0292 27.2996 42.8738 27.2996Z" fill="#4F9DA6"/>
<path d="M55.5781 55.2617H20.4219C20.2406 55.2617 20.0667 55.1897 19.9385 55.0615C19.8103 54.9333 19.7383 54.7594 19.7383 54.5781C19.7383 54.3968 19.8103 54.223 19.9385 54.0948C20.0667 53.9666 20.2406 53.8945 20.4219 53.8945H55.5781C55.7594 53.8945 55.9333 53.9666 56.0615 54.0948C56.1897 54.223 56.2617 54.3968 56.2617 54.5781C56.2617 54.7594 56.1897 54.9333 56.0615 55.0615C55.9333 55.1897 55.7594 55.2617 55.5781 55.2617Z" fill="#2D1F5E"/>
</svg>
