<svg width="75" height="75" viewBox="0 0 75 75" fill="none" xmlns="http://www.w3.org/2000/svg">
<rect width="75" height="75" rx="37.5" fill="white"/>
<g clip-path="url(#clip0_286_25115)">
<path d="M40.8613 27.3206H42.6154C42.6154 32.6029 44.3767 48.4426 39.0999 59H32.0691C39.0999 51.9618 40.8613 41.4044 40.8613 27.3206Z" fill="#D29856"/>
<path d="M27.394 36.1221C28.7444 23.8162 40.8613 29.0838 40.8613 29.0838C40.8613 18.5191 23.3575 16.7632 27.394 36.1221Z" fill="#16B200"/>
<path d="M40.8613 29.0838C42.8942 16.7632 61.9612 20.2677 53.169 37.9C54.923 23.8162 40.8613 29.0838 40.8613 29.0838Z" fill="#16B200"/>
<path d="M41.8741 26.9092C36.4872 15.6465 54.1157 7.58708 57 27.0488C50.3728 14.5078 41.8741 26.9092 41.8741 26.9092Z" fill="#16B200"/>
<path d="M40.6044 27.3206C48.8683 17.0865 32.7149 6.64668 25.0309 25.2855C34.8799 13.9641 40.6044 27.3206 40.6044 27.3206Z" fill="#16B200"/>
<path d="M40.8613 28.9589C43.7969 21.4872 54.3579 26.2553 46.7326 36.1368C49.7783 27.4896 40.8613 28.9589 40.8613 28.9589Z" fill="#16B200"/>
<path d="M44.1712 28.9589C41.2356 21.4872 30.6673 26.2553 38.3 36.1368C35.2542 27.4896 44.1712 28.9589 44.1712 28.9589Z" fill="#16B200"/>
<path d="M26.7115 43.4395L25.7868 43.7407C26.6455 46.3855 28.2968 54.614 32.7883 59L36.4578 57.8025C31.6434 55.4735 29.0087 50.4924 26.7115 43.4395Z" fill="#D29856"/>
<path d="M35.2249 45.5406C32.5094 39.6044 26.9977 44.3211 26.9977 44.3211C25.2804 39.0314 34.1974 35.1523 35.2249 45.5406Z" fill="#16B200"/>
<path d="M26.9977 44.3211C23.9227 38.5098 14.4625 43.5203 21.9558 50.8303C18.7339 44.0786 26.9977 44.3211 26.9977 44.3211Z" fill="#16B200"/>
<path d="M26.1097 43.4027C27.1152 36.842 16.5322 35.8208 18.1761 46.0623C19.6219 38.6494 26.1097 43.4027 26.1097 43.4027Z" fill="#16B200"/>
<path d="M26.8436 43.3954C20.8329 39.6779 27.6362 31.6919 34.7038 39.722C27.6803 35.7253 26.8436 43.3954 26.8436 43.3954Z" fill="#16B200"/>
<path d="M26.9757 44.2476C24.2015 41.015 19.4678 45.2027 25.0602 48.8467C22.0512 45.0558 26.9757 44.2476 26.9757 44.2476Z" fill="#16B200"/>
<path d="M25.229 44.8133C25.5813 40.5669 31.8929 41.1399 29.4784 47.4067C29.6912 42.5726 25.229 44.8133 25.229 44.8133Z" fill="#16B200"/>
</g>
<defs>
<clipPath id="clip0_286_25115">
<rect width="39" height="44" fill="white" transform="translate(18 15)"/>
</clipPath>
</defs>
</svg>
