<svg width="75" height="75" viewBox="0 0 75 75" fill="none" xmlns="http://www.w3.org/2000/svg">
<rect width="75" height="75" rx="37.5" fill="white"/>
<path d="M56.1613 42.344C55.7673 42.3418 55.4101 42.5758 55.2552 42.9383C55.1002 43.3007 55.1774 43.7206 55.4511 44.004C55.7248 44.2877 56.1416 44.3796 56.5093 44.2374C56.8768 44.0953 57.1233 43.7466 57.1352 43.3528C57.143 43.0888 57.0439 42.8329 56.8608 42.6433C56.6774 42.4533 56.4253 42.3452 56.1613 42.3439L56.1613 42.344Z" fill="black"/>
<path d="M56.1613 38.2614C54.8206 38.2614 53.5345 38.7935 52.5853 39.7408C51.6364 40.6879 51.1018 41.973 51.0993 43.3137C51.0968 44.6548 51.6264 45.9417 52.5719 46.8925C53.517 47.8434 54.8012 48.3805 56.142 48.3854C57.4827 48.3907 58.7709 47.8636 59.7236 46.9201C60.6762 45.9765 61.2155 44.6935 61.2234 43.3528C61.2312 42.0051 60.7013 40.71 59.7511 39.7542C58.8009 38.7988 57.509 38.2614 56.1613 38.2614ZM56.1613 45.4696C55.5902 45.4712 55.0418 45.245 54.6381 44.841C54.2341 44.437 54.0079 43.8886 54.0095 43.3174C54.011 42.7463 54.2404 42.1995 54.6465 41.7977C55.0524 41.3959 55.602 41.1728 56.1732 41.1775C56.7444 41.1821 57.2902 41.4143 57.6895 41.8227C58.0892 42.2307 58.3094 42.7816 58.3016 43.3528C58.2938 43.9158 58.0654 44.4532 57.6648 44.8494C57.2646 45.2453 56.7243 45.4681 56.1613 45.4696H56.1613Z" fill="black"/>
<path d="M20.5114 38.2614C19.171 38.2645 17.8868 38.7991 16.9401 39.7477C15.9934 40.6963 15.4616 41.9815 15.461 43.3216C15.4607 44.6617 15.9915 45.9474 16.9376 46.8967C17.8834 47.8462 19.1673 48.3814 20.5074 48.3855C21.8479 48.3895 23.1349 47.8621 24.0866 46.9188C25.0386 45.9752 25.5773 44.6929 25.5851 43.3528C25.5913 42.0036 25.0592 40.7076 24.1069 39.752C23.1545 38.7963 21.8603 38.2598 20.5115 38.2613L20.5114 38.2614ZM20.5114 45.4697C19.9409 45.4681 19.3944 45.2394 18.9929 44.8341C18.5911 44.4289 18.3677 43.8802 18.3711 43.3096C18.3749 42.7394 18.6055 42.1936 19.0123 41.7936C19.4191 41.3934 19.9684 41.1719 20.5386 41.1775C21.1092 41.1831 21.6541 41.4159 22.0528 41.8239C22.4512 42.232 22.6711 42.7822 22.6633 43.3528C22.6555 43.9177 22.4252 44.457 22.0225 44.8535C21.6194 45.2497 21.0764 45.4712 20.5114 45.4696L20.5114 45.4697Z" fill="black"/>
<path d="M20.5114 42.344C20.1184 42.3465 19.7647 42.5836 19.6134 42.9464C19.4619 43.3091 19.5419 43.7272 19.8168 44.008C20.0915 44.2893 20.5073 44.3792 20.8735 44.2365C21.2397 44.0933 21.485 43.7456 21.4969 43.3528C21.5047 43.0869 21.4041 42.8292 21.2185 42.6389C21.0326 42.4486 20.7773 42.342 20.5114 42.3439L20.5114 42.344Z" fill="black"/>
<path d="M65.0664 38.0222C61.3341 35.5379 56.698 34.1906 50.8365 33.905L42.9052 28.3414C42.2494 27.8812 41.4976 27.5762 40.7065 27.4491C38.9867 27.2022 37.2532 27.0601 35.5163 27.0232C35.4832 27.0204 35.4501 27.0204 35.4173 27.0232H35.3413C32.613 26.9401 29.8821 27.0804 27.177 27.4431C26.4368 27.5578 25.7303 27.8325 25.1066 28.248L18.2427 32.797H14.032C13.4587 32.7982 12.9094 33.0269 12.5039 33.4322C12.0983 33.8378 11.8699 34.3871 11.8683 34.9604V35.8527C11.8687 36.0974 11.7796 36.3339 11.6178 36.5176L10.5679 37.684C10.1452 38.1467 9.94301 38.7698 10.0139 39.3925L10.5154 43.3525C10.5782 43.8771 10.8316 44.3605 11.2272 44.711C11.6227 45.0613 12.133 45.2544 12.6617 45.2534H14.6036C14.3995 44.6404 14.2949 43.9986 14.2945 43.3524C14.2945 41.1272 15.4816 39.0709 17.4088 37.9582C19.3357 36.8459 21.71 36.8459 23.6372 37.9582C25.5641 39.0708 26.7515 41.1271 26.7515 43.3524C26.754 44.0083 26.6496 44.6604 26.4425 45.2828H50.2541C50.0426 44.661 49.9344 44.0089 49.9332 43.3524C49.9332 41.1272 51.1202 39.0709 53.0475 37.9582C54.9747 36.8459 57.3486 36.8459 59.2759 37.9582C61.2028 39.0708 62.3901 41.1271 62.3901 43.3524C62.3926 44.0083 62.2883 44.6604 62.0811 45.2828H63.8305C64.4101 45.2828 64.9654 45.051 65.3728 44.6391C65.7805 44.227 66.0061 43.6693 65.9999 43.09V39.8008C66.0067 39.0891 65.6565 38.421 65.0669 38.022L65.0664 38.0222ZM34.8341 33.8991H25.3459L23.5965 30.6683L25.7599 29.2394C26.247 28.9164 26.7979 28.7014 27.3753 28.6095C29.8465 28.2733 32.3408 28.133 34.8342 28.1896L34.8341 33.8991ZM36.0005 33.8991V28.2246C37.515 28.2649 39.0259 28.3915 40.526 28.604C41.1431 28.7008 41.7296 28.9383 42.2405 29.2979L48.7954 33.8991H36.0005Z" fill="#C20606"/>
</svg>
